<svg width="24" height="24" fill="none" xmlns="http://www.w3.org/2000/svg">
    <path fill-rule="evenodd" clip-rule="evenodd" d="M7 22.999a6 6 0 1 1 0-12 6 6 0 0 1 0 12Zm2.415-4.175-.018 1.206H4.573v-.432c0-.9.45-1.7 1.728-2.385l.846-.459c.63-.342.837-.666.837-1.107 0-.53-.36-.837-.927-.837-.72 0-1.071.567-1.071 1.233l-1.323-.117c.009-1.134.747-2.277 2.439-2.277 1.359 0 2.232.765 2.232 1.9 0 .917-.432 1.502-1.494 2.06l-.855.46c-.459.242-.747.503-.828.755h3.258Z" fill="#fff"/>
    <path d="M3.046 10.043a8 8 0 0 1 10.91 10.912C19.03 20.475 23 16.201 23 11c0-5.523-4.477-10-10-10-5.2 0-9.473 3.97-9.955 9.043Z" fill="#CC762E"/>
    <path d="m6.55 3.358 6.228 6.228 1.466-1.466a16.557 16.557 0 0 1-3.65-6.829 9.998 9.998 0 0 1 1.995-.283 14.557 14.557 0 0 0 3.072 5.695l3.545-3.545c.524.416 1.006.882 1.437 1.392l-3.567 3.568a14.556 14.556 0 0 0 5.921 3.133 10.013 10.013 0 0 1-.25 2 16.558 16.558 0 0 1-7.088-3.716L14.193 11l6.45 6.45c-.432.51-.913.976-1.437 1.391l-4.751-4.751a8.026 8.026 0 0 0-4.547-4.547l-4.75-4.75A10.06 10.06 0 0 1 6.55 3.358Z" fill="#fff"/>
</svg>
