<svg width="24" height="24" fill="none" xmlns="http://www.w3.org/2000/svg">
    <path fill-rule="evenodd" clip-rule="evenodd" d="M10.878 10h2.709l-.133 2.27A7.965 7.965 0 0 1 15 17a7.966 7.966 0 0 1-.929 3.745l4.787 1.596L20.895 4H23V2H1v2h2.111l.668 5.674A7.972 7.972 0 0 1 7 8.999c1.407 0 2.73.363 3.878 1.001Zm8.005-6h-2.94l-.235 4h2.73l.445-4ZM5.125 4h2.933l.235 4H5.596l-.471-4Zm8.815 0H10.06l.235 4h3.409l.235-4Zm4.277 6H15.59l-.236 4h2.417l.445-4Zm-.667 6h-2.313l-.174 2.967 2.08.693.407-3.66Z" fill="#ABB5BB"/>
    <path fill-rule="evenodd" clip-rule="evenodd" d="M1 16.999a6 6 0 1 0 12 0 6 6 0 0 0-12 0Zm2 0a4 4 0 0 0 6.032 3.447l-5.478-5.479A3.981 3.981 0 0 0 3 17Zm7.446 2.033-5.478-5.479a4 4 0 0 1 5.478 5.478Z" fill="#E10103"/>
</svg>
