<svg width="24" height="24" fill="none" xmlns="http://www.w3.org/2000/svg">
    <path fill-rule="evenodd" clip-rule="evenodd" d="M7 22.999a6 6 0 1 1 0-12 6 6 0 0 1 0 12Zm2.43-4.778c0 1.188-.919 1.935-2.413 1.935-1.656 0-2.448-.909-2.448-2.043l1.305-.117c.018.63.432 1.044 1.134 1.044.648 0 1.062-.324 1.062-.846 0-.486-.396-.81-1.07-.81h-.388V16.35h.396c.585 0 .927-.297.927-.8 0-.496-.35-.784-.945-.784-.684 0-1.008.45-1.08 1.053l-1.296-.117c.153-1.116.9-2.052 2.448-2.052 1.395 0 2.232.738 2.232 1.818 0 .765-.522 1.215-1.044 1.341.702.135 1.18.63 1.18 1.413Z" fill="#fff"/>
    <path d="M3.045 10.043a8 8 0 0 1 10.91 10.912C19.03 20.475 23 16.201 23 11c0-5.523-4.477-10-10-10-5.2 0-9.473 3.97-9.955 9.043Z" fill="#CC762E"/>
    <path d="m6.55 3.358 6.228 6.228 1.466-1.466a16.557 16.557 0 0 1-3.65-6.829 9.998 9.998 0 0 1 1.995-.283 14.557 14.557 0 0 0 3.072 5.695l3.545-3.545c.524.416 1.006.882 1.437 1.392l-3.567 3.568a14.556 14.556 0 0 0 5.921 3.133 10.013 10.013 0 0 1-.25 2 16.558 16.558 0 0 1-7.088-3.716L14.193 11l6.45 6.45c-.432.51-.913.976-1.437 1.391l-4.751-4.751a8.026 8.026 0 0 0-4.547-4.547l-4.75-4.75A10.06 10.06 0 0 1 6.55 3.358Z" fill="#fff"/>
</svg>
