<svg width="24" height="24" fill="none" xmlns="http://www.w3.org/2000/svg">
    <path fill-rule="evenodd" clip-rule="evenodd" d="M23 16.999a6 6 0 1 1-12 0 6 6 0 0 1 12 0Zm-3.879-3.535 1.414 1.415-2.12 2.12 2.12 2.122-1.414 1.415L17 18.414l-2.121 2.121-1.415-1.414L15.586 17l-2.121-2.121 1.414-1.415 2.12 2.122 2.122-2.122Z" fill="#fff"/>
    <path d="M20.955 10.043a8 8 0 0 0-10.91 10.912C4.97 20.475 1 16.201 1 11 1 5.477 5.477 1 11 1c5.2 0 9.473 3.97 9.955 9.043Z" fill="#CC762E"/>
    <path d="M13.406 1.291a9.998 9.998 0 0 0-1.995-.283 14.556 14.556 0 0 1-3.072 5.695L4.794 3.158A10.06 10.06 0 0 0 3.357 4.55l3.567 3.568a14.556 14.556 0 0 1-5.921 3.133c.017.686.103 1.354.251 2a16.558 16.558 0 0 0 7.088-3.716L9.807 11l-6.45 6.45c.432.51.913.976 1.437 1.391l4.751-4.751a8.026 8.026 0 0 1 4.547-4.547l4.75-4.75a10.063 10.063 0 0 0-1.392-1.436l-6.228 6.228L9.756 8.12a16.557 16.557 0 0 0 3.65-6.829Z" fill="#fff"/>
</svg>
