<svg width="24" height="24" fill="none" xmlns="http://www.w3.org/2000/svg">
    <path fill-rule="evenodd" clip-rule="evenodd" d="M1 16.999a6 6 0 1 0 12 0 6 6 0 0 0-12 0Zm3.88-3.535L3.464 14.88l2.121 2.12-2.121 2.122 1.414 1.415 2.122-2.122 2.121 2.121 1.414-1.414L8.415 17l2.12-2.121-1.413-1.415L7 15.586l-2.122-2.122Z" fill="#82909A"/>
    <path d="M3.045 10.043a8 8 0 0 1 10.91 10.912C19.03 20.475 23 16.201 23 11c0-5.523-4.477-10-10-10-5.2 0-9.473 3.97-9.955 9.043Z" fill="#DA720C"/>
    <path d="m6.55 3.358 6.228 6.228 1.466-1.466a16.557 16.557 0 0 1-3.65-6.829 9.998 9.998 0 0 1 1.995-.283 14.557 14.557 0 0 0 3.072 5.695l3.545-3.545c.524.416 1.006.882 1.437 1.392l-3.567 3.568a14.556 14.556 0 0 0 5.921 3.133 10.013 10.013 0 0 1-.25 2 16.558 16.558 0 0 1-7.088-3.716L14.193 11l6.45 6.45c-.432.51-.913.976-1.437 1.391l-4.751-4.751a8.026 8.026 0 0 0-4.547-4.547l-4.75-4.75A10.06 10.06 0 0 1 6.55 3.358Z" fill="#fff"/>
</svg>
