<svg width="24" height="24" fill="none" xmlns="http://www.w3.org/2000/svg">
    <path d="M5 17v-2a4 4 0 0 1 4 4v4h2v-4a6 6 0 0 0-6-6v-2l-4 3 4 3ZM19 17v-2a4 4 0 0 0-4 4v4h-2v-4a6 6 0 0 1 6-6v-2l4 3-4 3Z" fill="#7F8E97"/>
    <circle cx="12" cy="7" r="6" fill="#CC762E"/>
    <path fill-rule="evenodd" clip-rule="evenodd" d="M7.65 11.133A6.963 6.963 0 0 0 8.982 7.5H6.02a6.078 6.078 0 0 1 0-1h2.962A6.963 6.963 0 0 0 7.65 2.867c.23-.243.482-.466.75-.668A7.96 7.96 0 0 1 9.985 6.5H11.5V1.02a6.083 6.083 0 0 1 1 0V6.5h1.515A7.96 7.96 0 0 1 15.6 2.2c.268.2.519.424.75.667A6.963 6.963 0 0 0 15.018 6.5h2.961a6.084 6.084 0 0 1 0 1h-2.961a6.963 6.963 0 0 0 1.332 3.633 6.05 6.05 0 0 1-.75.668A7.96 7.96 0 0 1 14.015 7.5H12.5v5.48a6.089 6.089 0 0 1-1 0V7.5H9.985A7.96 7.96 0 0 1 8.4 11.801a6.04 6.04 0 0 1-.75-.668Z" fill="#fff"/>
</svg>
