<svg width="24" height="24" fill="none" xmlns="http://www.w3.org/2000/svg">
    <path fill-rule="evenodd" clip-rule="evenodd" d="M13.123 10h-2.71l.134 2.27A7.964 7.964 0 0 0 9 17c0 1.353.336 2.628.93 3.745L5.143 22.34 3.105 4H1V2h22v2h-2.11l-.668 5.674A7.972 7.972 0 0 0 17 8.999c-1.406 0-2.729.363-3.877 1.001ZM5.117 4h2.94l.235 4h-2.73l-.445-4Zm13.758 0h-2.932l-.235 4h2.697l.47-4Zm-8.814 0h3.878l-.235 4h-3.408l-.235-4Zm-4.277 6H8.41l.235 4H6.228l-.444-4Zm.667 6h2.312l.174 2.967-2.08.693L6.451 16Z" fill="#ABB5BB"/>
    <path fill-rule="evenodd" clip-rule="evenodd" d="M23 16.999a6 6 0 1 1-12 0 6 6 0 0 1 12 0Zm-2 0a4 4 0 0 1-6.031 3.447l5.478-5.479A3.98 3.98 0 0 1 21 17Zm-7.445 2.033 5.478-5.479a4 4 0 0 0-5.478 5.478Z" fill="#E10103"/>
</svg>
