<svg width="24" height="24" fill="none" xmlns="http://www.w3.org/2000/svg">
    <path d="m20.17 3.723-7.586-2.528a3 3 0 0 0-1.198-.144L6 1.5H4a1 1 0 0 0-1 1v3a1 1 0 0 0 1 1h2.513a3 3 0 0 1 .949.154l4.577 1.526a1.168 1.168 0 0 0 .844-2.177l-2.774-1.232a.2.2 0 0 1 .048-.38l1.664-.278a3 3 0 0 1 1.34.081l6.28 1.848a1.215 1.215 0 0 0 .728-2.319ZM14.3 8.132a2.169 2.169 0 0 1-2.229 1.082l1.193 3.579a3 3 0 0 1 .113 1.442l-.268 1.608a.2.2 0 0 1-.38.048l-1.232-2.774a1.168 1.168 0 0 0-2.177.844l1.526 4.577a3 3 0 0 1 .154.949V22a1 1 0 0 0 1 1h3a1 1 0 0 0 1-1v-2l.444-5.329a3 3 0 0 0-.18-1.302l-1.965-5.237Z" fill="#FF9A28"/>
</svg>
