<svg width="24" height="24" fill="none" xmlns="http://www.w3.org/2000/svg">
    <path d="M4.78 7.907A8.262 8.262 0 0 1 17.25 5.713L16 7.5h5.5l-2-5-1.098 1.57c-.415-.337-.86-.644-1.336-.919C12.158.318 5.882 2 3.048 6.907A10.225 10.225 0 0 0 1.723 11h2.013A8.236 8.236 0 0 1 4.78 7.907ZM19.443 16.093a8.262 8.262 0 0 1-12.471 2.195L8.223 16.5h-5.5l2 5 1.098-1.57c.415.337.86.644 1.337.919 4.908 2.833 11.184 1.152 14.017-3.756A10.225 10.225 0 0 0 22.5 13h-2.013a8.235 8.235 0 0 1-1.044 3.093Z" fill="#7F8E97"/>
    <circle cx="12" cy="12" transform="rotate(45 12 12)" fill="#CC762E" r="5"/>
    <path d="M16.976 12.483a5.027 5.027 0 0 0-.004-1.009 6.333 6.333 0 0 0-3.32 1.472l-.945-.945 3.165-3.165a5.064 5.064 0 0 0-.707-.707L12 11.294l-.947-.947a6.333 6.333 0 0 0 1.473-3.32 5.03 5.03 0 0 0-1.01-.003 5.335 5.335 0 0 1-1.172 2.613L8.835 8.13a5.06 5.06 0 0 0-.707.707l1.508 1.508a5.336 5.336 0 0 1-2.613 1.173 5.03 5.03 0 0 0 .004 1.01 6.332 6.332 0 0 0 3.32-1.473l.946.947-3.165 3.164a5.076 5.076 0 0 0 .707.707L12 12.708l.946.945a6.333 6.333 0 0 0-1.473 3.32c.336.035.674.036 1.01.004a5.336 5.336 0 0 1 1.172-2.614l1.509 1.509a5.08 5.08 0 0 0 .707-.707l-1.509-1.509a5.335 5.335 0 0 1 2.614-1.173Z" fill="#fff"/>
</svg>
