<svg width="24" height="24" fill="none" xmlns="http://www.w3.org/2000/svg">
    <path d="M15.593 21H7.252l-.403-1.472L8.778 19l-1.93.527v-.003l-.002-.006-.003-.014-.011-.04a14.662 14.662 0 0 1-.135-.595 26.597 26.597 0 0 1-.29-1.73C6.201 15.63 6 13.408 6 10.475 6 8.37 6.103 6.516 6.236 5H2.778S2 8.79 2 14.474 2.778 23 2.778 23h12.444s.183-.667.37-2Z" fill="#F5B71A"/>
    <path d="M8.778 19h12.444S22 16.158 22 10.474C22 4.789 21.222 1 21.222 1H8.778S8 4.79 8 10.474 8.778 19 8.778 19Z" fill="#D12834"/>
</svg>
