<svg width="24" height="24" viewBox="0 0 24 24" fill="none" xmlns="http://www.w3.org/2000/svg">
<path d="M11 10H9V18H11V10Z" fill="#7A8893"/>
<path d="M13 10H15V18H13V10Z" fill="#7A8893"/>
<path fill-rule="evenodd" clip-rule="evenodd" d="M8 1V5H2V7H4.55369C4.28714 8.51895 4 10.8794 4 14C4 19.8235 5 23 5 23H19C19 23 20 19.8235 20 14C20 10.8794 19.7129 8.51895 19.4463 7H22V5H16V1H8ZM14 5V3H10V5H14ZM6.58668 7C6.54987 7.19394 6.5118 7.40748 6.47356 7.64034C6.24012 9.06155 6 11.203 6 14C6 16.797 6.24012 18.9385 6.47356 20.3597C6.5118 20.5925 6.54987 20.8061 6.58668 21H17.4133C17.4501 20.8061 17.4882 20.5925 17.5264 20.3597C17.7599 18.9385 18 16.797 18 14C18 11.203 17.7599 9.06155 17.5264 7.64034C17.4882 7.40748 17.4501 7.19394 17.4133 7H6.58668Z" fill="#7A8893"/>
</svg>
