<svg width="24" height="24" fill="none" xmlns="http://www.w3.org/2000/svg">
    <path d="M11 10H9v8h2v-8ZM13 10h2v8h-2v-8Z" fill="#7A8893"/>
    <path fill-rule="evenodd" clip-rule="evenodd" d="M8 1v4H2v2h2.554C4.287 8.519 4 10.88 4 14c0 5.823 1 9 1 9h14s1-3.177 1-9c0-3.12-.287-5.481-.554-7H22V5h-6V1H8Zm6 4V3h-4v2h4ZM6.587 7c-.037.194-.075.407-.113.64C6.24 9.062 6 11.203 6 14s.24 4.939.474 6.36c.038.233.076.446.113.64h10.826c.037-.194.075-.407.113-.64.234-1.421.474-3.563.474-6.36s-.24-4.938-.474-6.36a26.094 26.094 0 0 0-.113-.64H6.587Z" fill="#7A8893"/>
</svg>
