<svg width="24" height="24" fill="none" xmlns="http://www.w3.org/2000/svg">
    <path fill-rule="evenodd" clip-rule="evenodd" d="M15.807 7.85 23 9.52l-4.84 5.596.638 7.383L12 19.61 5.202 22.5l.638-7.383L1 9.521 8.193 7.85 12 1.5l3.807 6.35Z" fill="#F7CA03"/>
    <path fill-rule="evenodd" clip-rule="evenodd" d="M14.528 9.605 12 5.39 9.472 9.605 4.68 10.72l3.225 3.729-.424 4.91L12 17.436l4.52 1.922-.425-4.91 3.225-3.729-4.792-1.114ZM23 9.521l-4.84 5.596.638 7.383L12 19.61 5.202 22.5l.638-7.383L1 9.521 8.193 7.85 12 1.5l3.807 6.35L23 9.52Z" fill="#D8AF03"/>
</svg>
