<svg width="24" height="24" fill="none" xmlns="http://www.w3.org/2000/svg">
    <circle cx="12" cy="12" r="10" fill="#5D707B"/>
    <path fill-rule="evenodd" clip-rule="evenodd" d="m11.5 5.637-2.781-2.02a9.006 9.006 0 0 0-2.943 1.881l.793 3.728 1.402.7 3.528-2.563V5.637Zm.677 16.361C12.117 22 12.059 22 12 22 6.477 22 2 17.523 2 12c0-5.377 4.245-9.764 9.566-9.99a9.996 9.996 0 0 1 .433-.01 9.922 9.922 0 0 1 3.622.676 10.055 10.055 0 0 1 4.27 3.181 9.956 9.956 0 0 1 1.941 4.311c.074.396.124.8.15 1.212h-.001a9.953 9.953 0 0 1-1.47 5.873l-.001.001c-.22.355-.46.695-.72 1.018h-.001a10.03 10.03 0 0 1-3.913 2.949 9.972 9.972 0 0 1-3.7.777ZM11.998 3c-.72 0-1.42.085-2.091.244l2.091 1.52 2.092-1.52A9.024 9.024 0 0 0 12 3Zm.5 2.637 2.781-2.02a9.004 9.004 0 0 1 2.859 1.802l-.821 3.863-1.29.645-3.529-2.564V5.637Zm5.875 3.487.598-2.815a8.961 8.961 0 0 1 1.915 4.266l-2.513-1.45Zm-.378.937 3.001 1.732L21 12c0 1.75-.5 3.382-1.363 4.764h-3.342l-1.118-1.453 1.49-4.586 1.329-.664Zm-1.621 7.703h2.537a9.026 9.026 0 0 1-3.35 2.504l.813-2.504Zm-.91-.438-1.09 3.357a9.011 9.011 0 0 1-2.376.317c-.822 0-1.618-.11-2.375-.317l-1.09-3.357.984-1.28h4.962l.986 1.28Zm-7.84.438.813 2.504a9.027 9.027 0 0 1-3.35-2.504h2.536Zm.079-1H4.362a8.958 8.958 0 0 1-1.359-5.03l2.946-1.7 1.383.691 1.49 4.585-1.118 1.454Zm-2.18-7.64-2.402 1.387a8.96 8.96 0 0 1 1.825-4.103l.578 2.716ZM12 8.236l3.58 2.6-1.367 4.21H9.787l-1.367-4.21 3.58-2.6Z" fill="#fff"/>
</svg>
