<svg width="24" height="24" fill="none" xmlns="http://www.w3.org/2000/svg">
    <path d="M11.002 17v3.333c0 .668.406 1.145.773 1.434.378.299.864.523 1.374.694 1.032.343 2.393.539 3.85.539 1.459 0 2.82-.196 3.852-.54.51-.17.995-.395 1.373-.693.367-.289.774-.766.774-1.434V17c0 .64-.328 1.148-.705 1.505-.376.355-.865.629-1.387.838-1.05.42-2.431.657-3.906.657s-2.857-.237-3.906-.657c-.522-.21-1.012-.483-1.387-.838-.378-.357-.706-.865-.706-1.505Z" fill="#52636F"/>
    <path d="M17 14c-1.475 0-2.857.237-3.906.657-.522.21-1.012.483-1.387.838-.378.357-.706.865-.706 1.505 0 .64.329 1.148.706 1.505.375.355.865.629 1.387.838 1.05.42 2.43.657 3.906.657 1.475 0 2.856-.237 3.906-.657.522-.21 1.011-.483 1.387-.838.377-.357.705-.865.705-1.505 0-.64-.328-1.148-.705-1.505-.376-.355-.865-.629-1.387-.838C19.856 14.237 18.475 14 17 14Z" fill="#3C4851"/>
    <path d="M1 10.954V19h4v-8.046H1ZM7 10.954V19h2v-2c0-1.368.706-2.366 1.329-2.956.62-.587 1.355-.978 2.016-1.243 1.161-.465 2.55-.726 3.984-.787L20 1h-6l-4 9.954H7Z" fill="#82909A"/>
</svg>
