<svg width="24" height="24" fill="none" xmlns="http://www.w3.org/2000/svg">
    <path fill-rule="evenodd" clip-rule="evenodd" d="M13 1v2.075a6.668 6.668 0 0 1 5.667 6.592V12L21 15v3s-1.367.586-5 .86V19a4 4 0 0 1-8 0v-.14C4.368 18.587 3 18 3 18v-3l2.333-3V9.667c0-3.342 2.46-6.11 5.667-6.592V1h2Zm-3 17.968V19a2 2 0 1 0 4 0v-.032a60.107 60.107 0 0 1-4 0Z" fill="#F7CA03"/>
    <path fill-rule="evenodd" clip-rule="evenodd" d="M13 1v2.075a6.668 6.668 0 0 1 5.667 6.592V12L21 15v3s-1.367.586-5 .86V19a4 4 0 0 1-8 0v-.14C4.368 18.587 3 18 3 18v-3l2.333-3V9.667c0-3.342 2.46-6.11 5.667-6.592V1h2Zm-3 17.968V19a2 2 0 1 0 4 0v-.032a60.107 60.107 0 0 1-4 0Zm-2.667-6.282-2.333 3v.78c.108.02.224.043.348.064 1.285.227 3.417.47 6.652.47 3.235 0 5.367-.243 6.652-.47.124-.021.24-.043.348-.064v-.78l-2.333-3v-3.02a4.667 4.667 0 0 0-9.334 0v3.02Z" fill="#D8AF03"/>
</svg>
