<svg width="24" height="24" fill="none" xmlns="http://www.w3.org/2000/svg">
    <g clip-path="url(#a)" fill-rule="evenodd" clip-rule="evenodd">
        <path d="M18 23.999a6 6 0 1 0 0-12 6 6 0 0 0 0 12Zm-2.265-2.906v-6.255h2.646c1.34 0 2.313.765 2.313 2.043 0 1.386-1.125 2.142-2.727 2.142-.306 0-.594-.01-.891-.045v2.115h-1.341Zm1.34-3.294c.28.045.559.063.856.063.89 0 1.359-.324 1.359-.981 0-.567-.37-.882-1.071-.882h-1.143v1.8Z" fill="#fff"/>
        <path d="M22.997 11.751a8 8 0 0 0-11.243 11.246C5.792 22.867 1 17.993 1 12 1 5.925 5.925 1 12 1c5.992 0 10.865 4.79 10.997 10.751Z" fill="#fff"/>
        <path d="M11.754 22.997C5.792 22.867 1 17.993 1 12 1 5.925 5.925 1 12 1c5.992 0 10.865 4.79 10.997 10.751A7.966 7.966 0 0 0 17.891 10l-.646-.373.894-4.208a9.005 9.005 0 0 0-2.858-1.802L12 6 8.72 3.617a9.006 9.006 0 0 0-2.943 1.881l.877 4.129-3.65 2.107a8.958 8.958 0 0 0 1.359 5.03H8.35l1.274 3.92c.297.08.601.147.91.197.298.77.711 1.483 1.219 2.116Zm3.61-12.553a8.023 8.023 0 0 0-4.874 4.792H9.65l-1.453-4.472L12 8l3.364 2.444Z" fill="#D12834"/>
    </g>
    <defs>
        <clipPath id="a">
            <path fill="#fff" d="M0 0h24v24H0z"/>
        </clipPath>
    </defs>
</svg>
