<svg width="24" height="24" fill="none" xmlns="http://www.w3.org/2000/svg">
    <g clip-path="url(#a)">
        <path d="M6 6c-2.87 2.87-4.08 6.9-4.37 10.293-.28 3.275 2.285 5.858 5.57 5.75 3.573-.117 7.884-1.126 10.8-4.043 2.914-2.914 4.119-7.22 4.383-10.79.243-3.279-2.314-5.836-5.592-5.593C13.22 1.882 8.914 3.086 6 6Z" fill="#AC5908"/>
        <path d="m15.836 6.75-4.131-4.13c.74-.248 1.488-.446 2.228-.601l8.048 8.047a20.135 20.135 0 0 1-.516 1.969l-.172.172-4.043-4.043L15.414 10l1.293 1.293-1.414 1.414L14 11.414l-.586.586 1.293 1.293-1.414 1.414L12 13.414l-.586.586 1.293 1.293-1.414 1.414L10 15.414 8.164 17.25l4.026 4.026a19.06 19.06 0 0 1-2.314.514L1.98 13.894c.153-.737.353-1.483.605-2.224l4.165 4.166L8.586 14l-1.293-1.293 1.414-1.414L10 12.586l.586-.586-1.293-1.293 1.414-1.414L12 10.586l.586-.586-1.293-1.293 1.414-1.414L14 8.586l1.836-1.836Z" fill="#fff"/>
    </g>
    <defs>
        <clipPath id="a">
            <path fill="#fff" d="M0 0h24v24H0z"/>
        </clipPath>
    </defs>
</svg>
