<svg width="24" height="24" fill="none" xmlns="http://www.w3.org/2000/svg">
    <circle cx="12" cy="12" r="11" fill="#fff"/>
    <path d="M15.804 10.764 12 8l-3.804 2.764 1.453 4.472h4.702l1.453-4.472Z" fill="#5D707B"/>
    <path fill-rule="evenodd" clip-rule="evenodd" d="M12 23c6.075 0 11-4.925 11-11S18.075 1 12 1 1 5.925 1 12s4.925 11 11 11Zm7.637-6.236a8.958 8.958 0 0 0 1.36-4.97l-3.752-2.167.894-4.208a9.005 9.005 0 0 0-2.858-1.802L12 6 8.72 3.617a9.006 9.006 0 0 0-2.943 1.881l.877 4.129-3.65 2.107a8.958 8.958 0 0 0 1.359 5.03H8.35l1.274 3.92A9.011 9.011 0 0 0 12 21c.822 0 1.619-.11 2.375-.317l1.274-3.92h3.988Z" fill="#5D707B"/>
</svg>
