<svg width="24" height="24" fill="none" xmlns="http://www.w3.org/2000/svg">
    <path d="M9.222 10.624A6.004 6.004 0 0 1 9 9c0-.77.145-1.507.41-2.183l1.959-.637V4.223a5.974 5.974 0 0 1 3.886-1.218l1.142 1.979 2.513-.534a6.017 6.017 0 0 1 1.596 2.163l-1.553 2.138.446.614a7.997 7.997 0 0 1 3.254 1.973 8 8 0 1 0-13.305 3.324 7.997 7.997 0 0 1 2.017-3.341l-2.143-.697Z" fill="#7F8E97"/>
    <path d="m17.544 8.75-.186.257a7.963 7.963 0 0 0-4.898 1.405l-.015-.005V7.094l3.152-1.024 1.947 2.68ZM3 6h3V4H3v2ZM5 10V8H1v2h4ZM6 14H3v-2h3v2Z" fill="#7F8E97"/>
    <path fill-rule="evenodd" clip-rule="evenodd" d="M21 16.999a4 4 0 0 1-6.031 3.447l5.478-5.479A3.98 3.98 0 0 1 21 17Zm-7.445 2.033 5.478-5.479a4 4 0 0 0-5.478 5.478ZM23 16.998a6 6 0 1 1-12 0 6 6 0 0 1 12 0Z" fill="#D12834"/>
</svg>
