<svg width="24" height="24" fill="none" xmlns="http://www.w3.org/2000/svg">
    <path d="M9.634 9.496 8.05 14.5H6.214L4.63 9.496h1.476l1.058 3.586.994-3.586h1.476Z" fill="#894AE9"/>
    <path fill-rule="evenodd" clip-rule="evenodd" d="M10.807 9.496h1.836l1.678 5.004h-1.476l-.288-.922c-.281.044-.583.065-.9.065-.274 0-.533-.021-.778-.065l-.273.922H9.13l1.677-5.004Zm1.469 3.031-.583-1.706-.54 1.706c.158.022.331.036.504.036.216 0 .417-.014.619-.036ZM17.965 12.635c.238.396.483.555.871.555.06 0 .124-.006.195-.013l.021-.002V14.5a2.523 2.523 0 0 1-.576.072c-.828 0-1.54-.576-1.9-1.52l-.05-.122c-.138 0-.274 0-.411-.014V14.5h-1.411V9.496h2.383c1.08 0 1.922.634 1.922 1.728 0 .749-.396 1.217-1.044 1.411Zm-.432-1.433c0-.316-.223-.496-.67-.496h-.748v1.008c.165.021.331.036.504.036.547 0 .914-.101.914-.548Z" fill="#894AE9"/>
    <path fill-rule="evenodd" clip-rule="evenodd" d="M1 11.579C1 16.632 2.223 20 2.223 20h19.554S23 16.632 23 11.579C23 6.526 21.777 4 21.777 4H2.224S1 6.526 1 11.579Zm19.43 5.7c-.054.263-.109.504-.161.721H3.73a23.143 23.143 0 0 1-.161-.722 28.29 28.29 0 0 1-.57-5.7c0-2.362.286-4.1.555-5.213.032-.13.063-.252.094-.365h16.703c.03.113.061.235.093.365.27 1.114.555 2.85.555 5.214 0 2.367-.287 4.334-.57 5.7Z" fill="#894AE9"/>
</svg>
